<?xml version="1.0" encoding="iso-8859-1"?>
<!-- Generator: Adobe Illustrator 16.0.0, SVG Export Plug-In . SVG Version: 6.00 Build 0)  -->
<!DOCTYPE svg PUBLIC "-//W3C//DTD SVG 1.1//EN" "http://www.w3.org/Graphics/SVG/1.1/DTD/svg11.dtd">
<svg version="1.1" id="Capa_1" xmlns="http://www.w3.org/2000/svg" xmlns:xlink="http://www.w3.org/1999/xlink" x="0px" y="0px"
	 width="472.982px" height="472.982px" viewBox="0 0 472.982 472.982" style="enable-background:new 0 0 472.982 472.982;"
	 xml:space="preserve">
<g>
	<g>
		<path d="M107.881,359.552l5.783-4.945c0,0-5.43-60.84,29.126-63.874c0,0,0.495-12.68,7.402-16.735
			c6.911-4.051-3.949-23.322,9.383-29.402c13.329-6.087,5.701-12.679,20.127-21.802c14.429-9.123,8.997-29.911,8.997-29.911
			s-18.268-40.555-5.432-54.243c12.834-13.693,0-2.028,0-2.028s0.495-20.228,8.392-24.055c0,0,11.478-33.612,38.812-30.38
			c0,0,44.198-5.382,46.878,63.055c2.669,68.439,23.407,77.568,26.862,80.106c3.458,2.535,32.092,22.808,39.998,90.746
			c0,0,19.248,12.68,3.458,42.596c0,0,0.979,59.906-3.458,67.212h20.826V44.158H107.881V359.552z"/>
		<path d="M67.26,472.982h338.463V0H67.26V472.982z M90.812,23.549h291.359v425.885H90.812V23.549z"/>
	</g>
</g>
<g>
</g>
<g>
</g>
<g>
</g>
<g>
</g>
<g>
</g>
<g>
</g>
<g>
</g>
<g>
</g>
<g>
</g>
<g>
</g>
<g>
</g>
<g>
</g>
<g>
</g>
<g>
</g>
<g>
</g>
</svg>
