<?xml version="1.0" encoding="utf-8"?>
<!-- Generator: Adobe Illustrator 23.0.3, SVG Export Plug-In . SVG Version: 6.00 Build 0)  -->
<svg version="1.1" id="Capa_1" xmlns="http://www.w3.org/2000/svg" xmlns:xlink="http://www.w3.org/1999/xlink" x="0px" y="0px"
	 viewBox="0 0 612 612" style="enable-background:new 0 0 612 612;" xml:space="preserve">
<g>
	<g>
		<path fill="#000000" d="M204.6,542.4c0,0,45.8,0,45.8-38.2V107.8c0-38.2-45.8-38.2-45.8-38.2h-75.3c0,0-45.8,0-45.8,38.2v396.4
			c0,38.3,45.8,38.3,45.8,38.3H204.6z"/>
		<path fill="#000000" d="M27.9,514.6h27.8V97.4H27.9c0,0-31.1,0-27.6,208.6C3.8,514.6,27.9,514.6,27.9,514.6z"/>
		<path fill="#000000" d="M612,306c0-208.6-34.8-208.6-34.8-208.6h-299v417.3h299C577.2,514.6,612,514.6,612,306z M333.8,459
			c-15.4,0-27.8-12.5-27.8-27.8c0-15.4,12.5-27.8,27.8-27.8c15.4,0,27.8,12.5,27.8,27.8C361.7,446.5,349.2,459,333.8,459z
			 M333.8,375.5c-15.4,0-27.8-12.5-27.8-27.8c0-15.4,12.5-27.8,27.8-27.8c15.4,0,27.8,12.5,27.8,27.8
			C361.7,363.1,349.2,375.5,333.8,375.5z M333.8,292.1c-15.4,0-27.8-12.5-27.8-27.8c0-15.4,12.5-27.8,27.8-27.8
			c15.4,0,27.8,12.5,27.8,27.8S349.2,292.1,333.8,292.1z M417.3,459c-15.4,0-27.8-12.5-27.8-27.8c0-15.4,12.5-27.8,27.8-27.8
			c15.4,0,27.8,12.5,27.8,27.8C445.1,446.5,432.7,459,417.3,459z M417.3,375.5c-15.4,0-27.8-12.5-27.8-27.8
			c0-15.4,12.5-27.8,27.8-27.8c15.4,0,27.8,12.5,27.8,27.8C445.1,363.1,432.7,375.5,417.3,375.5z M417.3,292.1
			c-15.4,0-27.8-12.5-27.8-27.8c0-15.4,12.5-27.8,27.8-27.8c15.4,0,27.8,12.5,27.8,27.8C445.1,279.6,432.7,292.1,417.3,292.1z
			 M500.7,459c-15.4,0-27.8-12.5-27.8-27.8c0-15.4,12.5-27.8,27.8-27.8c15.4,0,27.8,12.5,27.8,27.8C528.6,446.5,516.1,459,500.7,459
			z M500.7,375.5c-15.4,0-27.8-12.5-27.8-27.8c0-15.4,12.5-27.8,27.8-27.8c15.4,0,27.8,12.5,27.8,27.8
			C528.6,363.1,516.1,375.5,500.7,375.5z M500.7,292.1c-15.4,0-27.8-12.5-27.8-27.8c0-15.4,12.5-27.8,27.8-27.8
			c15.4,0,27.8,12.5,27.8,27.8C528.6,279.6,516.1,292.1,500.7,292.1z M528.6,204.4c0,2.4-2.1,4.3-4.6,4.3H310.7
			c-2.6,0-4.6-1.9-4.6-4.3v-47.1c0-2.4,2.1-4.3,4.6-4.3h213.2c2.6,0,4.6,1.9,4.6,4.3V204.4z"/>
	</g>
</g>
</svg>
